<?xml version="1.0" standalone="no"?>
<!DOCTYPE svg PUBLIC "-//W3C//DTD SVG 20010904//EN"
 "http://www.w3.org/TR/2001/REC-SVG-20010904/DTD/svg10.dtd">
<svg version="1.0" xmlns="http://www.w3.org/2000/svg"
 width="300.000000pt" height="300.000000pt" viewBox="0 0 300.000000 300.000000"
 preserveAspectRatio="xMidYMid meet">
<metadata>
Created by potrace 1.10, written by Peter Selinger 2001-2011
</metadata>
<g transform="translate(0.000000,300.000000) scale(0.100000,-0.100000)"
fill="#000000" stroke="none">
<path d="M1282 2807 l-194 -194 26 -40 c59 -89 57 -217 -4 -302 -17 -23 -71
-68 -126 -105 l-96 -64 -57 -118 c-85 -174 -152 -229 -281 -228 -65 1 -131 27
-179 73 l-34 32 -164 -163 c-90 -90 -166 -174 -170 -187 -5 -20 15 -43 133
-162 86 -86 146 -139 159 -139 13 0 225 205 612 592 l593 593 593 -593 c396
-396 599 -592 612 -592 24 0 295 268 295 291 0 22 -1482 1499 -1504 1499 -12
0 -94 -74 -214 -193z"/>
<path d="M503 2902 c-12 -9 -49 -74 -82 -144 l-60 -127 -93 -62 c-126 -84
-138 -96 -138 -136 0 -19 5 -43 10 -54 6 -10 58 -51 116 -90 l105 -70 60 -127
c60 -129 86 -161 126 -162 54 0 73 20 138 156 l63 132 106 72 c111 75 126 91
126 135 0 44 -17 62 -126 136 l-106 71 -60 126 c-63 135 -85 162 -133 162 -16
0 -40 -8 -52 -18z"/>
<path d="M2220 2545 c124 -124 226 -225 227 -225 2 0 3 90 3 200 0 270 20 250
-252 250 l-203 0 225 -225z"/>
<path d="M955 1601 c-359 -359 -549 -542 -567 -546 l-28 -7 0 -495 0 -495 29
-29 29 -29 356 0 355 0 3 393 c3 381 4 394 26 449 32 79 99 150 179 190 57 28
76 32 147 32 68 0 91 -4 141 -27 78 -36 146 -104 182 -181 l28 -61 3 -397 3
-398 352 0 352 1 -46 24 c-62 32 -91 69 -151 190 -47 95 -55 104 -112 141 -98
63 -152 122 -172 189 -21 73 -13 132 25 199 22 40 48 65 121 115 l93 65 47
101 c27 56 62 115 78 132 l30 30 -476 476 c-263 263 -479 477 -482 477 -3 0
-248 -243 -545 -539z"/>
<path d="M2572 1053 c-7 -3 -42 -62 -77 -131 l-64 -127 -75 -48 c-107 -69
-126 -89 -126 -131 0 -39 6 -45 138 -137 73 -50 74 -52 127 -164 60 -128 85
-153 138 -139 29 8 39 22 94 132 l61 123 99 68 c151 104 151 132 -7 241 l-94
65 -49 105 c-28 58 -59 115 -70 128 -20 21 -63 28 -95 15z"/>
<path d="M1415 876 c-37 -17 -80 -62 -94 -99 -7 -18 -11 -162 -11 -403 l0
-374 175 0 175 0 0 164 0 164 -60 4 c-45 3 -66 10 -85 28 -25 23 -33 68 -19
105 10 26 59 45 114 45 l52 0 -4 133 c-3 123 -5 136 -28 170 -45 67 -143 95
-215 63z"/>
</g>
</svg>
