<?xml version="1.0" standalone="no"?>
<!DOCTYPE svg PUBLIC "-//W3C//DTD SVG 20010904//EN"
 "http://www.w3.org/TR/2001/REC-SVG-20010904/DTD/svg10.dtd">
<svg version="1.0" xmlns="http://www.w3.org/2000/svg"
 width="300.000000pt" height="300.000000pt" viewBox="0 0 300.000000 300.000000"
 preserveAspectRatio="xMidYMid meet">
<metadata>
Created by potrace 1.10, written by Peter Selinger 2001-2011
</metadata>
<g transform="translate(0.000000,300.000000) scale(0.100000,-0.100000)"
fill="#000000" stroke="none">
<path d="M1346 2985 c-327 -68 -575 -286 -678 -595 -31 -91 -32 -102 -32 -260
-1 -142 2 -177 22 -250 46 -167 131 -331 238 -456 104 -121 301 -247 432 -274
28 -7 52 -14 52 -16 0 -3 -29 -43 -65 -91 -36 -47 -65 -93 -65 -102 0 -9 7
-27 16 -39 13 -19 24 -22 90 -22 92 0 92 0 24 -138 -88 -178 -88 -305 -1 -481
34 -71 51 -118 56 -162 11 -91 58 -126 105 -79 42 42 20 162 -53 303 -41 77
-42 82 -42 177 0 95 1 100 41 176 39 75 55 116 68 177 6 27 7 27 86 27 70 0
81 2 94 22 9 12 16 30 16 39 0 9 -29 55 -65 102 -36 48 -65 88 -65 91 0 2 24
9 53 16 79 16 226 92 310 159 168 136 295 338 359 571 20 73 23 108 22 250 0
158 -1 169 -32 260 -95 285 -330 506 -617 581 -104 27 -276 34 -369 14z m-54
-312 c10 -9 18 -28 18 -43 0 -29 -20 -50 -88 -94 -100 -64 -179 -177 -207
-299 -20 -88 -22 -93 -51 -105 -32 -15 -72 3 -80 35 -10 40 15 144 57 230 46
97 131 193 222 253 67 43 100 49 129 23z"/>
<path d="M413 2541 c-209 -110 -344 -285 -393 -507 -25 -112 -25 -204 -1 -319
69 -334 299 -611 574 -690 48 -14 57 -20 51 -33 -23 -54 -12 -101 28 -114 8
-3 4 -20 -15 -54 -74 -133 -88 -170 -89 -240 -2 -102 8 -143 62 -234 33 -56
51 -99 55 -134 8 -60 28 -86 65 -86 46 0 64 31 57 98 -5 61 -20 99 -83 212
-33 60 -36 70 -32 135 3 61 9 78 42 133 22 35 47 86 57 115 13 38 24 53 41 57
31 8 46 51 30 92 -13 36 -9 48 18 48 11 0 44 9 75 21 98 36 98 81 1 158 -213
170 -374 432 -432 705 -37 174 -28 356 25 526 31 97 30 131 -4 144 -32 12 -61
5 -132 -33z"/>
<path d="M2506 2321 c-15 -16 -16 -33 -10 -127 21 -341 -118 -677 -390 -944
-74 -72 -81 -97 -39 -136 31 -28 158 -94 183 -94 27 0 30 -10 15 -41 -8 -15
-15 -37 -15 -47 0 -22 30 -52 51 -52 8 0 27 -26 41 -57 15 -32 42 -78 60 -101
28 -37 33 -52 33 -97 0 -44 -5 -60 -33 -97 -76 -101 -107 -198 -78 -243 39
-59 98 -36 115 45 7 32 28 75 55 113 55 78 69 123 64 201 -4 66 -28 122 -80
187 l-31 39 26 24 c31 29 33 45 12 87 -15 27 -14 30 2 35 192 62 334 196 434
408 75 161 96 326 59 470 -40 156 -130 285 -258 369 -114 75 -184 94 -216 58z"/>
</g>
</svg>
