<?xml version="1.0" standalone="no"?>
<!DOCTYPE svg PUBLIC "-//W3C//DTD SVG 20010904//EN"
 "http://www.w3.org/TR/2001/REC-SVG-20010904/DTD/svg10.dtd">
<svg version="1.0" xmlns="http://www.w3.org/2000/svg"
 width="300.000000pt" height="300.000000pt" viewBox="0 0 300.000000 300.000000"
 preserveAspectRatio="xMidYMid meet">
<metadata>
Created by potrace 1.10, written by Peter Selinger 2001-2011
</metadata>
<g transform="translate(0.000000,300.000000) scale(0.050000,-0.050000)"
fill="#000000" stroke="none">
<path d="M1393 5607 c-28 -29 -14 -321 17 -347 19 -16 30 -60 30 -121 l0 -96
-108 -49 c-138 -64 -262 -188 -329 -331 l-53 -113 -6 -934 -5 -935 -275 -5
-274 -6 -6 -121 c-5 -109 0 -127 48 -175 l53 -54 1013 -5 c1162 -6 1090 22
542 -209 -381 -160 -839 -378 -1002 -477 l-122 -74 -93 92 c-52 51 -112 93
-134 93 -46 0 -309 -256 -309 -301 0 -39 1021 -1059 1061 -1059 45 0 299 264
299 311 0 23 -36 76 -80 119 -43 42 -76 80 -73 84 29 29 545 71 1043 85 676
19 696 22 931 181 243 164 589 557 868 985 l114 175 486 0 486 0 53 54 c48 48
53 66 48 175 l-6 121 -275 6 -275 5 0 546 c0 397 -7 552 -24 569 -34 34 -1038
34 -1072 0 -17 -17 -24 -172 -24 -570 l0 -547 -375 6 -375 5 -5 341 -6 340 87
24 c149 40 276 143 349 284 l66 126 -6 343 -5 342 -528 5 c-389 4 -535 -1
-556 -18 -58 -48 -28 -663 38 -790 69 -131 195 -238 330 -281 l106 -33 0 -347
0 -346 -370 0 -370 0 0 865 c-1 1153 -36 1277 -412 1454 -97 46 -130 202 -58
274 31 31 43 250 18 315 -13 33 -444 50 -475 19z m287 -493 c0 -147 20 -179
132 -211 112 -31 264 -169 321 -292 l47 -101 0 -915 0 -915 -60 0 -60 0 0 826
c0 616 -6 832 -24 850 -46 46 -810 33 -835 -15 -14 -25 -21 -329 -21 -851 l0
-813 -55 7 -55 6 0 910 0 910 57 115 c62 127 185 236 309 277 116 37 124 50
124 200 l0 138 60 0 60 0 0 -126z m1880 -894 l0 -161 -435 6 -435 5 -6 128
c-9 196 -43 182 445 182 l431 0 0 -160z m1380 -690 l0 -150 -440 0 -440 0 0
150 0 150 440 0 440 0 0 -150z m556 -1025 l-6 -55 -2490 0 -2490 0 -6 55 -7
55 2503 0 2503 0 -7 -55z m-1476 -202 c0 -52 -523 -513 -663 -584 -81 -42
-516 -58 -574 -22 -31 20 256 151 509 232 215 69 258 115 257 273 l0 118 235
0 c130 0 236 -8 236 -17z m-2500 -1693 l-80 -80 -455 455 -454 454 79 81 79
81 455 -455 456 -456 -80 -80z"/>
</g>
</svg>
