<?xml version="1.0" standalone="no"?>
<!DOCTYPE svg PUBLIC "-//W3C//DTD SVG 20010904//EN"
 "http://www.w3.org/TR/2001/REC-SVG-20010904/DTD/svg10.dtd">
<svg version="1.0" xmlns="http://www.w3.org/2000/svg"
 width="300.000000pt" height="300.000000pt" viewBox="0 0 300.000000 300.000000"
 preserveAspectRatio="xMidYMid meet">
<metadata>
Created by potrace 1.10, written by Peter Selinger 2001-2011
</metadata>
<g transform="translate(0.000000,300.000000) scale(0.100000,-0.100000)"
fill="#000000" stroke="none">
<path d="M1790 2793 c-68 -25 -145 -106 -166 -178 -78 -271 240 -478 451 -293
192 169 74 489 -180 487 -33 0 -80 -8 -105 -16z"/>
<path d="M1495 2151 c-46 -12 -91 -38 -113 -66 -11 -14 -39 -78 -62 -142 -88
-243 -100 -269 -123 -281 -12 -6 -75 -13 -139 -14 -100 -3 -121 -6 -145 -24
-52 -39 -55 -113 -8 -160 24 -24 27 -24 202 -24 152 0 184 3 219 19 56 25 86
70 113 166 54 194 61 214 81 220 11 3 28 1 39 -5 20 -10 21 -20 23 -783 3
-725 4 -775 21 -800 61 -94 200 -86 249 13 16 31 18 68 18 312 0 238 2 279 16
292 19 19 35 20 57 4 14 -12 17 -47 19 -303 3 -322 4 -324 71 -366 45 -28 127
-22 163 12 56 51 54 27 54 853 0 682 2 766 16 780 18 19 45 21 62 4 9 -9 12
-82 12 -266 0 -305 3 -317 93 -346 25 -8 81 17 101 45 14 20 16 63 16 338 0
213 -4 326 -12 353 -16 53 -87 131 -140 154 -39 17 -77 19 -458 21 -228 1
-428 -2 -445 -6z"/>
<path d="M807 1154 c-12 -13 -8 -199 5 -212 18 -18 192 -16 207 2 8 9 11 48 9
112 l-3 99 -106 3 c-58 1 -108 -1 -112 -4z"/>
<path d="M462 968 c-7 -7 -12 -21 -12 -33 0 -41 140 -718 151 -731 9 -11 63
-14 270 -14 236 0 259 2 268 18 5 9 42 180 81 379 60 298 71 365 60 378 -16
19 -54 19 -70 0 -7 -9 -43 -165 -80 -348 l-66 -332 -195 -3 -196 -2 -67 337
c-38 186 -73 344 -78 351 -13 15 -50 16 -66 0z"/>
<path d="M760 751 c-41 -26 -76 -55 -78 -63 -2 -9 18 -50 44 -92 35 -56 52
-76 68 -76 30 1 160 83 164 104 2 10 -13 45 -34 79 -44 74 -63 97 -78 96 -6 0
-45 -22 -86 -48z"/>
</g>
</svg>
