<?xml version="1.0" standalone="no"?>
<!DOCTYPE svg PUBLIC "-//W3C//DTD SVG 20010904//EN"
 "http://www.w3.org/TR/2001/REC-SVG-20010904/DTD/svg10.dtd">
<svg version="1.0" xmlns="http://www.w3.org/2000/svg"
 width="300.000000pt" height="300.000000pt" viewBox="0 0 300.000000 300.000000"
 preserveAspectRatio="xMidYMid meet">
<metadata>
Created by potrace 1.10, written by Peter Selinger 2001-2011
</metadata>
<g transform="translate(0.000000,300.000000) scale(0.100000,-0.100000)"
fill="#000000" stroke="none">
<path d="M336 2981 c-9 -10 -75 -193 -146 -406 -116 -349 -128 -391 -117 -414
9 -19 21 -27 44 -29 27 -3 70 22 273 158 133 89 246 160 251 158 11 -4 159
-211 154 -216 -1 -2 -54 -10 -116 -18 -232 -30 -369 -87 -369 -152 0 -8 225
-241 500 -518 l500 -505 0 -334 c0 -309 -1 -334 -17 -339 -10 -3 -54 -10 -98
-16 -199 -28 -338 -75 -370 -123 -39 -60 26 -139 143 -175 118 -36 209 -47
407 -47 274 0 437 33 515 104 117 106 25 181 -285 232 -66 11 -130 22 -142 24
l-23 5 0 333 0 332 486 485 c267 267 492 498 500 513 34 64 -36 113 -97 68
-81 -60 -481 -101 -991 -101 l-217 0 -41 58 -41 57 173 6 c95 4 234 7 309 8
108 1 139 4 149 16 18 22 15 63 -6 87 -19 20 -24 20 -369 17 l-350 -4 -97 135
c-53 74 -97 138 -98 142 0 4 116 85 258 179 141 94 267 181 280 192 27 25 28
61 2 87 -19 19 -33 20 -478 20 -435 0 -460 -1 -476 -19z m584 -913 c16 -22 30
-45 30 -50 0 -10 -86 -5 -270 18 -198 25 -195 30 45 59 168 20 161 21 195 -27z"/>
<path d="M2225 2602 c-194 -58 -346 -217 -399 -419 l-14 -53 31 0 c49 0 275
29 343 44 36 7 77 25 99 42 79 60 207 27 255 -66 22 -43 26 -112 9 -157 -6
-15 -82 -100 -169 -188 -147 -149 -159 -163 -165 -205 -8 -56 7 -78 60 -90
152 -36 353 24 482 143 194 180 235 487 94 705 -72 110 -154 178 -276 227 -60
25 -86 29 -180 32 -83 2 -125 -2 -170 -15z"/>
</g>
</svg>
