<?xml version="1.0" standalone="no"?>
<!DOCTYPE svg PUBLIC "-//W3C//DTD SVG 20010904//EN"
 "http://www.w3.org/TR/2001/REC-SVG-20010904/DTD/svg10.dtd">
<svg version="1.0" xmlns="http://www.w3.org/2000/svg"
 width="300.000000pt" height="300.000000pt" viewBox="0 0 300.000000 300.000000"
 preserveAspectRatio="xMidYMid meet">
<metadata>
Created by potrace 1.10, written by Peter Selinger 2001-2011
</metadata>
<g transform="translate(0.000000,300.000000) scale(0.100000,-0.100000)"
fill="#000000" stroke="none">
<path d="M1413 2706 c-103 -34 -167 -89 -212 -186 -21 -45 -25 -70 -25 -136
l0 -81 -85 -28 c-191 -62 -369 -172 -516 -320 -189 -189 -306 -405 -362 -665
-14 -65 -18 -129 -18 -271 l0 -187 -43 -23 c-178 -94 -201 -345 -43 -466 86
-66 16 -63 1391 -63 1375 0 1305 -3 1391 63 158 121 135 372 -43 466 l-43 23
0 197 c0 172 -3 208 -24 291 -30 118 -58 196 -115 308 -152 300 -436 543 -757
647 l-85 28 0 81 c1 92 -25 163 -83 229 -72 81 -228 126 -328 93z m177 -211
c36 -35 52 -73 48 -116 l-3 -34 -135 0 -135 0 -3 29 c-5 41 4 70 35 106 34 41
58 51 116 46 36 -2 55 -10 77 -31z m130 -362 c273 -54 513 -207 682 -433 103
-137 181 -322 208 -490 13 -81 11 -336 -3 -357 -12 -19 -2202 -19 -2214 0 -14
21 -16 276 -3 357 100 626 709 1048 1330 923z m1035 -1487 c63 -26 75 -97 26
-147 l-29 -29 -1252 0 -1252 0 -29 29 c-48 49 -37 120 24 146 48 21 2462 22
2512 1z"/>
<path d="M1062 1861 c-191 -106 -351 -281 -428 -471 -28 -71 -26 -99 11 -136
17 -17 35 -24 63 -24 48 0 67 20 115 121 66 139 177 258 312 334 28 16 58 35
69 44 64 55 21 162 -66 161 -13 0 -47 -13 -76 -29z"/>
</g>
</svg>
