<?xml version="1.0" standalone="no"?>
<!DOCTYPE svg PUBLIC "-//W3C//DTD SVG 20010904//EN"
 "http://www.w3.org/TR/2001/REC-SVG-20010904/DTD/svg10.dtd">
<svg version="1.0" xmlns="http://www.w3.org/2000/svg"
 width="300.000000pt" height="300.000000pt" viewBox="0 0 300.000000 300.000000"
 preserveAspectRatio="xMidYMid meet">
<metadata>
Created by potrace 1.10, written by Peter Selinger 2001-2011
</metadata>
<g transform="translate(0.000000,300.000000) scale(0.100000,-0.100000)"
fill="#000000" stroke="none">
<path d="M1457 2454 c-32 -18 -47 -50 -47 -103 l0 -38 -84 -12 c-402 -56 -761
-317 -944 -686 -71 -144 -111 -293 -127 -472 l-6 -73 1251 0 1252 0 -7 67
c-21 231 -82 422 -190 594 -191 303 -526 521 -880 570 l-85 12 0 38 c0 54 -15
86 -49 104 -37 18 -48 18 -84 -1z m-249 -420 c26 -29 28 -70 6 -102 -8 -12
-52 -41 -97 -63 -199 -100 -347 -253 -436 -452 -31 -69 -67 -95 -116 -83 -96
24 -83 123 39 311 105 160 257 295 429 380 103 51 136 53 175 9z"/>
<path d="M81 848 c1 -87 66 -196 151 -252 104 -69 51 -67 1294 -64 l1119 3 58
23 c112 45 202 163 214 279 l6 53 -1422 0 -1421 0 1 -42z"/>
</g>
</svg>
