<?xml version="1.0" standalone="no"?>
<!DOCTYPE svg PUBLIC "-//W3C//DTD SVG 20010904//EN"
 "http://www.w3.org/TR/2001/REC-SVG-20010904/DTD/svg10.dtd">
<svg version="1.0" xmlns="http://www.w3.org/2000/svg"
 width="300.000000pt" height="300.000000pt" viewBox="0 0 300.000000 300.000000"
 preserveAspectRatio="xMidYMid meet">
<metadata>
Created by potrace 1.10, written by Peter Selinger 2001-2011
</metadata>
<g transform="translate(0.000000,300.000000) scale(0.100000,-0.100000)"
fill="#000000" stroke="none">
<path d="M666 2708 c-13 -18 -16 -52 -16 -163 0 -126 2 -145 23 -185 12 -26
38 -55 60 -69 36 -24 37 -25 37 -88 l0 -63 55 0 55 0 0 63 c0 62 1 64 37 88
73 48 78 62 81 241 4 210 15 198 -174 198 -136 0 -144 -1 -158 -22z"/>
<path d="M2016 2711 c-15 -17 -17 -39 -14 -179 3 -179 8 -193 81 -241 36 -24
37 -26 37 -88 l0 -63 55 0 55 0 0 63 c0 63 1 64 38 88 21 14 47 43 60 69 20
40 22 59 22 185 0 194 8 185 -174 185 -128 0 -145 -2 -160 -19z"/>
<path d="M1456 2648 c-9 -12 -16 -39 -16 -60 0 -33 -4 -38 -27 -44 -90 -22
-196 -112 -235 -202 -13 -29 -23 -76 -26 -124 l-5 -78 353 0 353 0 -5 78 c-3
48 -13 95 -26 124 -39 90 -145 180 -234 202 -24 6 -28 11 -28 44 0 50 -23 82
-60 82 -18 0 -34 -8 -44 -22z"/>
<path d="M22 2538 c-9 -9 -12 -188 -12 -743 0 -696 1 -733 18 -748 17 -15 66
-17 505 -17 577 0 527 -12 527 127 0 107 -20 156 -82 196 l-42 27 -288 0 -288
0 0 510 c0 438 -2 516 -15 548 -19 43 -50 79 -87 98 -35 18 -218 20 -236 2z"/>
<path d="M2735 2531 c-40 -24 -61 -49 -80 -94 -13 -31 -15 -110 -15 -547 l0
-510 -288 0 -288 0 -42 -27 c-62 -40 -82 -89 -82 -196 0 -139 -50 -127 528
-127 461 0 490 1 505 18 16 17 17 83 17 748 0 555 -3 733 -12 742 -8 8 -48 12
-113 12 -80 0 -106 -4 -130 -19z"/>
<path d="M652 2020 c-47 -11 -108 -55 -137 -98 -32 -49 -45 -120 -45 -254 0
-104 8 -143 34 -160 14 -10 1978 -10 1992 0 26 17 34 56 34 160 0 195 -27 267
-125 327 l-48 30 -836 2 c-460 1 -851 -2 -869 -7z"/>
<path d="M1380 845 c0 -629 -11 -575 120 -575 131 0 120 -54 120 575 l0 535
-120 0 -120 0 0 -535z"/>
<path d="M10 607 c0 -360 -8 -337 117 -337 120 0 113 -22 113 338 l0 302 -115
0 -115 0 0 -303z"/>
<path d="M830 607 c0 -360 -8 -337 117 -337 120 0 113 -22 113 338 l0 302
-115 0 -115 0 0 -303z"/>
<path d="M1940 607 c0 -360 -8 -337 117 -337 120 0 113 -22 113 338 l0 302
-115 0 -115 0 0 -303z"/>
<path d="M2760 607 c0 -360 -8 -337 117 -337 120 0 113 -22 113 338 l0 302
-115 0 -115 0 0 -303z"/>
</g>
</svg>
