<?xml version="1.0" standalone="no"?>
<!DOCTYPE svg PUBLIC "-//W3C//DTD SVG 20010904//EN"
 "http://www.w3.org/TR/2001/REC-SVG-20010904/DTD/svg10.dtd">
<svg version="1.0" xmlns="http://www.w3.org/2000/svg"
 width="300.000000pt" height="300.000000pt" viewBox="0 0 300.000000 300.000000"
 preserveAspectRatio="xMidYMid meet">
<metadata>
Created by potrace 1.10, written by Peter Selinger 2001-2011
</metadata>
<g transform="translate(0.000000,300.000000) scale(0.100000,-0.100000)"
fill="#000000" stroke="none">
<path d="M2847 2633 c-87 -135 -137 -258 -168 -416 -16 -83 -19 -143 -19 -392
0 -290 0 -294 23 -320 15 -18 36 -28 65 -32 41 -6 42 -7 37 -37 -12 -79 -53
-716 -56 -871 -2 -148 0 -159 28 -202 31 -48 58 -63 115 -63 33 0 46 6 73 34
60 64 61 83 36 520 -13 215 -26 395 -29 401 -4 5 -9 332 -12 725 l-5 715 -22
3 c-18 3 -31 -10 -66 -65z"/>
<path d="M58 2590 c-18 -11 -19 -15 -44 -415 -18 -284 -15 -309 32 -380 14
-22 50 -59 80 -83 77 -61 81 -80 60 -294 -27 -286 -56 -744 -56 -901 0 -78 4
-106 20 -136 28 -56 64 -81 115 -81 85 0 135 73 135 200 0 109 -26 533 -51
842 -18 217 -20 272 -10 296 7 16 41 55 76 86 91 81 110 125 108 251 -3 127
-32 574 -39 597 -10 34 -68 33 -78 0 -3 -10 1 -129 8 -267 7 -139 9 -260 5
-272 -7 -18 -16 -23 -42 -23 -50 0 -57 25 -58 208 -2 239 -11 361 -29 372 -21
13 -33 12 -55 -3 -16 -13 -19 -38 -25 -280 -5 -192 -11 -271 -20 -282 -18 -21
-67 -19 -79 4 -10 17 0 336 14 476 7 74 -22 111 -67 85z"/>
<path d="M1393 2535 c-361 -57 -669 -316 -783 -659 -70 -214 -69 -443 2 -646
55 -156 125 -265 246 -382 174 -168 366 -258 597 -277 717 -60 1256 613 1034
1292 -118 362 -418 615 -796 672 -115 17 -188 17 -300 0z m305 -241 c47 -9
118 -35 182 -66 91 -44 115 -62 195 -142 50 -50 105 -116 122 -146 126 -222
137 -484 30 -710 -32 -69 -106 -166 -171 -227 -271 -252 -688 -268 -976 -37
-278 224 -363 609 -204 925 39 78 110 175 164 223 180 160 426 227 658 180z"/>
<path d="M1436 2094 c-109 -24 -192 -70 -271 -149 -111 -110 -165 -235 -165
-387 0 -92 16 -160 57 -246 67 -141 218 -261 370 -292 92 -20 245 -8 323 24
236 96 378 342 341 592 -46 311 -353 526 -655 458z"/>
</g>
</svg>
