<?xml version="1.0" standalone="no"?>
<!DOCTYPE svg PUBLIC "-//W3C//DTD SVG 20010904//EN"
 "http://www.w3.org/TR/2001/REC-SVG-20010904/DTD/svg10.dtd">
<svg version="1.0" xmlns="http://www.w3.org/2000/svg"
 width="300.000000pt" height="300.000000pt" viewBox="0 0 300.000000 300.000000"
 preserveAspectRatio="xMidYMid meet">
<metadata>
Created by potrace 1.10, written by Peter Selinger 2001-2011
</metadata>
<g transform="translate(0.000000,300.000000) scale(0.100000,-0.100000)"
fill="#000000" stroke="none">
<path d="M1430 2299 c-108 -22 -212 -104 -260 -206 -31 -64 -38 -180 -16 -255
8 -30 32 -77 52 -104 152 -205 444 -203 592 4 74 104 83 256 22 370 -76 144
-237 223 -390 191z"/>
<path d="M774 1981 c-83 -21 -153 -94 -174 -181 -35 -147 80 -290 232 -290 60
0 140 33 175 71 58 63 80 180 47 257 -43 104 -173 170 -280 143z"/>
<path d="M2110 1981 c-74 -24 -138 -80 -164 -143 -33 -77 -11 -194 47 -257 57
-62 184 -89 265 -55 71 29 132 107 147 187 16 85 -37 194 -117 241 -47 27
-136 41 -178 27z"/>
<path d="M1141 1521 c-183 -63 -297 -147 -349 -258 -25 -55 -27 -68 -30 -224
l-4 -167 29 -30 c80 -86 553 -166 846 -143 270 22 526 85 580 143 l29 30 -4
167 c-3 156 -5 169 -30 224 -52 111 -166 195 -349 258 l-110 37 -67 -31 c-63
-30 -74 -32 -182 -32 -108 0 -119 2 -182 32 l-67 31 -110 -37z"/>
<path d="M595 1446 c-126 -41 -232 -126 -255 -203 -6 -21 -10 -86 -8 -148 3
-109 3 -110 31 -123 39 -19 211 -61 261 -64 l41 -3 6 165 c5 178 14 213 72
298 16 24 27 45 25 47 -5 6 -91 36 -113 40 -11 3 -38 -2 -60 -9z"/>
<path d="M2310 1445 c-14 -8 -32 -15 -40 -15 -40 -1 -43 -17 -13 -61 58 -86
67 -120 72 -299 l6 -165 41 3 c50 3 222 45 261 64 28 13 28 14 31 123 2 63 -2
127 -8 149 -18 61 -88 127 -177 169 -95 44 -139 52 -173 32z"/>
</g>
</svg>
