<?xml version="1.0" standalone="no"?>
<!DOCTYPE svg PUBLIC "-//W3C//DTD SVG 20010904//EN"
 "http://www.w3.org/TR/2001/REC-SVG-20010904/DTD/svg10.dtd">
<svg version="1.0" xmlns="http://www.w3.org/2000/svg"
 width="300.000000pt" height="300.000000pt" viewBox="0 0 300.000000 300.000000"
 preserveAspectRatio="xMidYMid meet">
<metadata>
Created by potrace 1.10, written by Peter Selinger 2001-2011
</metadata>
<g transform="translate(0.000000,300.000000) scale(0.100000,-0.100000)"
fill="#000000" stroke="none">
<path d="M664 2850 c-46 -18 -68 -85 -44 -131 12 -22 60 -49 88 -49 11 0 31
10 46 21 90 71 15 202 -90 159z"/>
<path d="M1274 2710 c-84 -34 -64 -162 27 -176 31 -5 42 -1 70 24 46 41 47 92
1 133 -33 29 -60 35 -98 19z"/>
<path d="M1919 2706 c-103 -27 -200 -112 -246 -213 -20 -43 -27 -78 -31 -150
l-5 -93 121 0 c144 0 222 20 296 77 99 76 146 178 146 315 l0 78 -117 -1 c-65
0 -139 -6 -164 -13z"/>
<path d="M352 2385 c-71 -20 -105 -39 -136 -75 -37 -44 -33 -83 15 -180 52
-104 239 -384 349 -522 84 -106 86 -107 127 -108 l42 0 -6 33 c-37 199 -166
442 -322 607 -39 41 -71 78 -71 81 0 3 14 18 31 35 l31 29 80 -85 c140 -148
248 -331 309 -520 l27 -85 16 38 c55 127 60 318 12 460 -49 144 -127 237 -235
278 -73 28 -198 34 -269 14z"/>
<path d="M1024 2291 c-36 -9 -89 -44 -103 -68 -6 -11 -3 -30 9 -58 49 -114 65
-319 35 -459 -8 -38 -13 -71 -12 -72 2 -2 18 20 37 49 51 78 100 198 120 295
10 50 22 87 29 86 6 -1 27 -2 46 -2 36 -2 36 -2 30 -39 -28 -169 -95 -328
-190 -450 l-55 -73 103 0 103 0 0 88 c0 121 27 187 109 268 43 44 76 67 113
80 29 10 52 24 52 31 0 26 -38 111 -69 157 -78 112 -251 193 -357 167z"/>
<path d="M2295 2210 c-55 -23 -87 -47 -127 -100 -42 -55 -44 -100 -13 -242 31
-137 29 -162 -13 -209 -33 -37 -95 -48 -168 -30 -25 7 -48 11 -49 9 -1 -2 -5
-33 -7 -70 l-4 -68 148 0 c145 0 148 0 153 23 2 12 16 76 31 141 27 127 80
320 95 348 8 14 14 15 42 6 17 -6 36 -14 40 -18 4 -4 -8 -61 -27 -126 -36
-121 -86 -330 -86 -358 0 -14 28 -16 231 -16 l231 0 -14 23 c-29 43 -101 78
-184 89 -87 11 -120 27 -134 64 -12 31 -1 61 45 121 44 58 57 106 57 210 0 94
-25 161 -74 196 -39 29 -112 31 -173 7z"/>
<path d="M1424 1845 c-51 -25 -88 -59 -118 -107 l-17 -27 40 -12 c23 -7 41
-14 41 -17 0 -3 -5 -22 -12 -44 -12 -41 -18 -43 -72 -22 -13 5 -16 -2 -16 -39
0 -82 -20 -77 275 -77 145 0 266 3 268 8 2 4 7 20 11 36 6 26 5 28 -18 22 -13
-3 -31 -9 -40 -12 -15 -6 -22 4 -40 63 -6 18 -1 23 43 38 l49 16 -12 31 c-18
49 -86 119 -141 144 -70 33 -75 32 -75 -21 l0 -45 -45 0 -45 0 0 45 c0 53 -6
55 -76 20z m166 -205 l0 -50 -45 0 -45 0 0 50 0 50 45 0 45 0 0 -50z"/>
<path d="M322 1668 c-86 -36 -132 -82 -132 -133 l0 -35 176 0 c132 0 173 3
168 12 -4 6 -37 51 -74 99 l-67 87 -71 -30z"/>
<path d="M190 1378 c0 -127 69 -374 144 -515 121 -226 326 -428 554 -542 93
-47 253 -98 362 -116 124 -20 376 -20 500 0 109 18 269 69 362 116 232 117
450 335 567 567 66 130 131 374 131 490 l0 32 -1310 0 -1310 0 0 -32z m360
-478 c88 -129 245 -273 378 -346 37 -21 69 -39 71 -41 5 -3 -30 -83 -36 -83
-10 0 -95 48 -158 89 -93 61 -248 211 -320 311 -31 45 -56 82 -54 84 9 6 74
46 76 46 1 0 21 -27 43 -60z m620 -475 l0 -45 -45 0 -45 0 0 45 0 45 45 0 45
0 0 -45z"/>
</g>
</svg>
