<?xml version="1.0" standalone="no"?>
<!DOCTYPE svg PUBLIC "-//W3C//DTD SVG 20010904//EN"
 "http://www.w3.org/TR/2001/REC-SVG-20010904/DTD/svg10.dtd">
<svg version="1.0" xmlns="http://www.w3.org/2000/svg"
 width="300.000000pt" height="300.000000pt" viewBox="0 0 300.000000 300.000000"
 preserveAspectRatio="xMidYMid meet">
<metadata>
Created by potrace 1.10, written by Peter Selinger 2001-2011
</metadata>
<g transform="translate(0.000000,300.000000) scale(0.100000,-0.100000)"
fill="#000000" stroke="none">
<path d="M528 2790 c-8 -12 -24 -20 -40 -20 -29 0 -68 -31 -68 -53 0 -23 35
-47 68 -47 31 0 32 -1 32 -45 0 -44 0 -45 -33 -45 -33 0 -67 -24 -67 -48 0
-24 40 -52 73 -52 l33 0 17 -88 c14 -73 17 -152 17 -444 l0 -356 -43 -25 c-60
-35 -124 -108 -155 -175 -32 -72 -41 -184 -18 -256 l15 -49 -45 -50 c-175
-195 -163 -507 29 -698 l59 -59 -94 0 c-60 0 -98 -4 -106 -12 -15 -15 -15 -51
0 -66 17 -17 2579 -17 2596 0 7 7 12 21 12 33 0 36 -20 45 -102 45 l-78 0 0
999 0 999 90 67 c66 49 90 73 90 89 0 28 -18 46 -45 46 -22 0 -403 -279 -418
-306 -11 -20 18 -64 42 -64 10 0 29 8 42 18 13 10 41 31 62 46 l37 28 0 -961
0 -961 -108 0 -107 0 -79 79 -78 78 41 60 c56 83 97 174 122 273 18 70 21 104
17 200 -7 161 -42 261 -142 413 l-18 27 94 0 c60 0 98 4 106 12 8 8 12 63 12
180 l0 169 27 23 c24 21 26 26 16 49 -8 18 -23 28 -45 32 -18 3 -187 5 -375 3
-304 -3 -344 -5 -359 -20 -21 -21 -12 -64 16 -73 16 -5 20 -15 20 -56 l0 -50
-49 7 c-72 9 -214 -13 -311 -49 -95 -36 -176 -86 -256 -160 -30 -27 -54 -45
-54 -40 0 21 -76 96 -126 125 l-54 30 0 343 c0 304 2 354 20 440 11 53 20 99
20 101 0 2 11 4 24 4 49 0 76 17 76 49 0 34 -22 51 -64 51 -24 0 -26 3 -26 45
0 43 1 45 28 45 42 0 64 21 60 55 -3 26 -9 31 -43 40 -22 5 -46 17 -53 27 -12
16 -31 18 -177 18 -154 0 -166 -1 -177 -20z m222 -585 l0 -45 -45 0 -45 0 0
45 0 45 45 0 45 0 0 -45z m0 -190 l0 -45 -45 0 -45 0 0 45 0 45 45 0 45 0 0
-45z m0 -190 l0 -45 -45 0 -45 0 0 45 0 45 45 0 45 0 0 -45z m0 -185 l0 -50
-45 0 -45 0 0 50 0 50 45 0 45 0 0 -50z m0 -185 l0 -45 -45 0 -45 0 0 45 0 45
45 0 45 0 0 -45z m969 30 c127 -30 271 -120 271 -169 0 -54 -47 -60 -107 -13
-97 78 -240 116 -360 97 -80 -13 -174 -54 -225 -99 -51 -44 -108 -39 -108 11
0 51 187 161 310 181 57 10 159 6 219 -8z m-969 -220 l0 -45 -45 0 -45 0 0 45
0 45 45 0 45 0 0 -45z m0 -190 l0 -45 -45 0 -45 0 0 45 0 45 45 0 45 0 0 -45z
m3 -149 c52 -22 79 -59 85 -114 8 -91 -48 -152 -142 -152 -43 0 -53 4 -86 38
-50 50 -59 94 -31 156 16 37 29 51 63 66 51 23 68 24 111 6z m907 -46 c157
-44 219 -246 113 -369 -65 -77 -152 -104 -245 -77 -93 27 -155 102 -165 202
-17 163 137 289 297 244z m-839 -420 c19 -11 24 -35 13 -64 -5 -13 -26 -16
-130 -16 -123 0 -125 0 -136 25 -9 21 -8 28 7 45 16 18 31 20 122 20 57 0 113
-5 124 -10z m333 -127 c28 -20 55 -40 61 -45 5 -4 -41 -8 -102 -8 l-112 0 47
45 c26 24 49 45 51 45 2 0 26 -17 55 -37z m986 -8 l44 -45 -109 0 c-59 0 -106
2 -104 5 11 11 114 84 119 85 3 0 26 -20 50 -45z"/>
</g>
</svg>
