<?xml version="1.0" standalone="no"?>
<!DOCTYPE svg PUBLIC "-//W3C//DTD SVG 20010904//EN"
 "http://www.w3.org/TR/2001/REC-SVG-20010904/DTD/svg10.dtd">
<svg version="1.0" xmlns="http://www.w3.org/2000/svg"
 width="300.000000pt" height="300.000000pt" viewBox="0 0 300.000000 300.000000"
 preserveAspectRatio="xMidYMid meet">
<metadata>
Created by potrace 1.10, written by Peter Selinger 2001-2011
</metadata>
<g transform="translate(0.000000,300.000000) scale(0.100000,-0.100000)"
fill="#000000" stroke="none">
<path d="M2150 2667 c-131 -70 -140 -259 -17 -344 36 -25 49 -28 118 -28 71 0
80 2 116 31 112 90 112 237 0 328 -32 26 -48 31 -105 34 -56 3 -74 0 -112 -21z"/>
<path d="M686 2448 c-78 -21 -146 -116 -146 -203 0 -52 44 -131 90 -161 92
-61 222 -37 284 53 79 114 16 278 -119 312 -50 13 -56 13 -109 -1z"/>
<path d="M1385 2402 c-4 -9 -27 -72 -51 -140 l-44 -123 33 -13 c17 -7 40 -16
51 -20 22 -7 31 6 -112 -163 l-103 -123 -142 72 c-137 69 -148 72 -330 109
-181 37 -190 38 -227 23 -70 -28 -125 -109 -175 -258 -16 -47 -23 -85 -19
-101 6 -25 49 -55 79 -55 20 0 19 -6 -10 -150 -25 -121 -25 -131 -25 -587 0
-502 1 -514 54 -548 30 -20 84 -22 115 -5 12 6 31 26 41 43 19 30 20 54 20
460 0 418 0 427 20 427 19 0 19 -10 22 -440 l3 -440 25 -25 c52 -52 132 -48
174 8 20 28 21 41 26 525 l6 497 42 199 c23 110 44 202 47 205 3 3 62 -23 131
-57 132 -66 160 -72 191 -44 19 16 254 295 301 356 27 35 28 66 3 97 -19 23
-19 24 15 118 19 52 31 98 27 101 -5 4 -47 21 -95 38 -78 28 -87 29 -93 14z
m113 -44 c28 -11 52 -22 52 -26 0 -4 -12 -42 -27 -86 -22 -62 -32 -80 -53 -88
-14 -5 -33 -16 -42 -25 -14 -13 -23 -13 -55 -3 -21 7 -42 16 -46 20 -4 3 11
59 34 124 46 131 33 122 137 84z"/>
<path d="M2278 2236 c-86 -18 -168 -40 -181 -49 -45 -29 -74 -114 -122 -363
-4 -16 -19 -25 -70 -39 l-65 -17 0 -74 c0 -41 3 -74 6 -74 4 0 58 14 121 31
130 36 140 45 150 129 6 56 16 51 27 -15 14 -79 -4 -80 229 10 116 46 213 89
215 96 1 8 -16 51 -38 97 -44 92 -44 92 -30 92 20 0 107 -198 92 -211 -4 -3
-104 -43 -222 -89 -119 -45 -223 -91 -232 -102 -10 -11 -18 -32 -18 -47 0 -32
37 -71 66 -71 29 0 535 198 557 218 27 24 18 86 -33 215 -47 122 -110 219
-169 264 -54 42 -76 41 -283 -1z m192 -205 c0 -14 -10 -20 -37 -25 -21 -3 -48
-9 -60 -12 -18 -5 -23 -2 -23 13 0 19 14 24 113 42 4 0 7 -7 7 -18z"/>
<path d="M1500 1660 l0 -150 -307 -2 -308 -3 -22 -100 c-22 -96 -23 -117 -20
-515 l2 -415 1078 -3 1077 -2 0 520 0 520 -160 0 -160 0 0 48 c0 68 -11 122
-24 122 -7 0 -106 -37 -221 -82 l-210 -82 -207 -4 -208 -4 0 151 0 151 -155 0
-155 0 0 -150z"/>
<path d="M0 990 l0 -521 138 3 137 3 6 480 c4 264 10 497 14 518 l7 37 -151 0
-151 0 0 -520z"/>
</g>
</svg>
