<?xml version="1.0" standalone="no"?>
<!DOCTYPE svg PUBLIC "-//W3C//DTD SVG 20010904//EN"
 "http://www.w3.org/TR/2001/REC-SVG-20010904/DTD/svg10.dtd">
<svg version="1.0" xmlns="http://www.w3.org/2000/svg"
 width="300.000000pt" height="300.000000pt" viewBox="0 0 300.000000 300.000000"
 preserveAspectRatio="xMidYMid meet">
<metadata>
Created by potrace 1.10, written by Peter Selinger 2001-2011
</metadata>
<g transform="translate(0.000000,300.000000) scale(0.100000,-0.100000)"
fill="#000000" stroke="none">
<path d="M705 2658 c-31 -18 -44 -40 -45 -76 0 -46 16 -71 56 -88 29 -12 39
-12 68 0 40 17 56 42 56 88 -1 68 -75 110 -135 76z"/>
<path d="M900 2363 c-54 -73 -91 -153 -98 -209 l-5 -44 45 0 44 0 13 50 c10
41 55 119 106 186 7 10 1 22 -20 44 -16 16 -32 30 -35 30 -4 0 -26 -26 -50
-57z"/>
<path d="M362 2320 c-61 -57 -25 -160 56 -160 46 0 71 16 88 56 12 29 12 39 0
68 -8 19 -23 39 -34 45 -33 18 -86 13 -110 -9z"/>
<path d="M2755 2175 c-27 -13 -196 -90 -375 -172 -179 -81 -335 -155 -347
-163 -38 -28 -65 -85 -62 -134 2 -25 1 -48 -2 -50 -3 -3 -27 2 -54 11 -70 23
-287 22 -429 -1 -145 -24 -352 -75 -505 -125 -68 -23 -127 -41 -131 -41 -4 0
-11 19 -14 43 -9 57 17 151 55 206 l31 44 -35 35 -35 35 -40 -61 c-55 -85 -77
-170 -69 -269 l7 -78 -102 -42 c-56 -23 -104 -40 -107 -38 -13 14 -32 158 -38
293 -5 133 -9 158 -27 184 -60 88 -198 90 -259 4 -21 -29 -22 -44 -27 -235
l-5 -204 -49 -16 c-70 -23 -91 -55 -89 -137 0 -36 9 -96 18 -134 l17 -70 -26
-31 c-34 -40 -56 -93 -56 -134 0 -43 76 -193 135 -267 101 -128 285 -241 480
-295 93 -26 113 -28 285 -28 161 0 197 4 280 24 246 61 427 160 599 326 150
144 243 306 287 493 22 93 20 257 -4 350 -16 64 -17 72 -3 65 9 -4 43 -8 76
-7 57 0 76 8 440 190 411 204 425 214 425 291 0 44 -31 103 -70 137 -40 33
-104 34 -175 1z m-2367 -365 c20 -19 22 -31 22 -123 0 -200 33 -365 102 -506
32 -67 58 -103 117 -162 42 -42 95 -86 119 -98 23 -12 42 -23 42 -25 0 -2 -64
-16 -142 -31 -170 -33 -232 -30 -308 11 -28 15 -65 44 -82 63 -61 69 -118 226
-118 323 0 42 3 48 20 48 30 0 75 26 99 56 20 25 21 39 21 221 0 193 0 194 25
218 29 30 54 32 83 5z m1792 -50 c20 -20 26 -65 12 -86 -7 -11 -45 -34 -57
-34 -3 0 2 11 10 24 13 20 14 29 5 47 -10 18 -18 21 -51 16 -41 -5 -42 -1 -11
36 20 23 67 22 92 -3z m-292 -185 c64 -19 79 -42 57 -89 -9 -18 -29 -45 -44
-60 l-28 -27 -7 31 c-15 80 -97 131 -174 111 -45 -12 -89 -57 -98 -99 -27
-125 -55 -189 -116 -269 -36 -48 -48 -55 -161 -101 -67 -28 -175 -69 -239 -91
l-118 -40 -52 16 c-88 26 -149 62 -213 127 -48 49 -125 165 -125 189 0 5 206
97 218 97 4 0 18 -18 32 -40 14 -22 28 -40 33 -40 13 0 67 43 67 53 0 5 -9 22
-20 37 l-20 29 122 40 c204 65 408 114 563 134 85 11 275 6 323 -8z m-129
-134 c16 -10 17 -74 1 -115 -8 -23 -115 -104 -124 -95 -2 2 6 36 20 74 13 39
24 78 24 88 0 48 41 72 79 48z m-1565 -568 c43 -48 41 -49 -32 -28 -70 21 -86
56 -48 104 8 11 13 9 26 -10 8 -13 32 -43 54 -66z"/>
<path d="M330 1063 c1 -54 114 -203 154 -203 8 0 23 15 35 32 l20 33 -49 48
c-26 27 -54 62 -60 78 -11 26 -17 29 -56 29 -35 0 -44 -3 -44 -17z"/>
<path d="M842 1173 l3 -48 45 0 45 0 3 48 3 47 -51 0 -51 0 3 -47z"/>
<path d="M90 2065 l0 -45 50 0 50 0 0 45 0 45 -50 0 -50 0 0 -45z"/>
<path d="M610 2015 l0 -45 45 0 45 0 0 45 0 45 -45 0 -45 0 0 -45z"/>
<path d="M560 1595 l0 -45 50 0 50 0 0 45 0 45 -50 0 -50 0 0 -45z"/>
</g>
</svg>
