<?xml version="1.0" standalone="no"?>
<!DOCTYPE svg PUBLIC "-//W3C//DTD SVG 20010904//EN"
 "http://www.w3.org/TR/2001/REC-SVG-20010904/DTD/svg10.dtd">
<svg version="1.0" xmlns="http://www.w3.org/2000/svg"
 width="300.000000pt" height="300.000000pt" viewBox="0 0 300.000000 300.000000"
 preserveAspectRatio="xMidYMid meet">
<metadata>
Created by potrace 1.10, written by Peter Selinger 2001-2011
</metadata>
<g transform="translate(0.000000,300.000000) scale(0.100000,-0.100000)"
fill="#000000" stroke="none">
<path d="M1370 2994 c-76 -10 -209 -48 -291 -83 -316 -136 -544 -422 -614
-770 -26 -126 -17 -351 20 -491 79 -304 248 -622 585 -1102 364 -517 375 -532
403 -542 17 -6 37 -6 54 0 28 10 39 25 403 542 339 483 506 798 586 1107 27
102 29 123 28 295 0 172 -2 191 -27 275 -93 306 -289 539 -564 671 -137 66
-259 94 -418 99 -71 2 -146 1 -165 -1z m327 -194 c286 -68 518 -270 624 -544
33 -86 59 -222 59 -311 0 -276 -153 -641 -464 -1106 -116 -172 -409 -588 -416
-589 -5 0 -107 143 -321 450 -325 466 -496 809 -543 1089 -20 118 -20 195 -1
306 59 339 314 614 649 701 121 31 294 33 413 4z"/>
<path d="M1360 2454 c-189 -51 -347 -228 -380 -425 -42 -247 116 -506 356
-585 82 -26 246 -26 328 0 182 60 329 236 357 427 37 259 -134 518 -386 583
-73 20 -202 19 -275 0z m260 -179 c145 -50 239 -198 228 -355 -10 -131 -83
-235 -206 -293 -55 -26 -78 -31 -142 -31 -64 0 -87 5 -142 31 -81 38 -142 97
-177 172 -22 47 -26 70 -26 146 0 77 4 98 27 147 77 165 264 243 438 183z"/>
</g>
</svg>
