<?xml version="1.0" standalone="no"?>
<!DOCTYPE svg PUBLIC "-//W3C//DTD SVG 20010904//EN"
 "http://www.w3.org/TR/2001/REC-SVG-20010904/DTD/svg10.dtd">
<svg version="1.0" xmlns="http://www.w3.org/2000/svg"
 width="300.000000pt" height="300.000000pt" viewBox="0 0 300.000000 300.000000"
 preserveAspectRatio="xMidYMid meet">
<metadata>
Created by potrace 1.10, written by Peter Selinger 2001-2011
</metadata>
<g transform="translate(0.000000,300.000000) scale(0.100000,-0.100000)"
fill="#000000" stroke="none">
<path d="M1292 2535 c-307 -56 -565 -220 -721 -459 -28 -43 -51 -82 -51 -86 0
-4 25 -24 55 -45 108 -74 207 -202 265 -342 33 -79 74 -230 85 -315 l6 -48
569 0 568 0 12 73 c47 296 180 527 379 657 23 16 23 16 6 50 -54 107 -194 259
-310 337 -129 87 -287 149 -449 178 -107 18 -312 18 -414 0z"/>
<path d="M248 1909 c-49 -14 -126 -83 -149 -134 -12 -25 -19 -64 -19 -105 0
-57 5 -73 33 -120 43 -72 107 -112 187 -118 58 -4 59 -5 75 -44 35 -88 47
-165 52 -343 5 -155 8 -185 25 -217 25 -44 61 -72 116 -88 l40 -13 4 -114 c3
-112 4 -115 31 -139 38 -32 90 -32 122 1 24 23 25 30 25 140 l0 115 710 0 710
0 0 -115 c0 -110 1 -117 25 -140 32 -33 84 -33 122 -1 27 24 28 27 31 139 l4
114 40 13 c55 16 91 44 116 88 17 32 20 62 25 217 6 179 19 269 53 346 15 35
18 37 74 41 80 6 144 46 188 118 27 46 32 64 32 117 0 75 -19 125 -63 171 -79
83 -194 101 -299 48 -123 -62 -236 -198 -298 -358 -31 -79 -63 -228 -75 -350
l-6 -58 -679 0 -679 0 -6 58 c-33 302 -96 464 -235 602 -117 116 -225 158
-332 129z"/>
</g>
</svg>
