<svg width="122" height="24" viewBox="0 0 122 24" fill="none" xmlns="http://www.w3.org/2000/svg">
<g filter="url(#filter0_i_1_54)">
<path d="M11.736 23.32C10.1573 23.32 8.68533 23.032 7.32 22.456C5.95467 21.8587 4.76 21.0373 3.736 19.992C2.712 18.9253 1.912 17.6987 1.336 16.312C0.781333 14.9253 0.504 13.4427 0.504 11.864C0.504 10.264 0.781333 8.78133 1.336 7.416C1.912 6.02933 2.70133 4.81333 3.704 3.768C4.728 2.72267 5.912 1.912 7.256 1.336C8.62133 0.759998 10.0933 0.471998 11.672 0.471998C13.2507 0.471998 14.712 0.759998 16.056 1.336C17.4213 1.912 18.616 2.72267 19.64 3.768C20.664 4.81333 21.464 6.02933 22.04 7.416C22.616 8.80267 22.904 10.296 22.904 11.896C22.904 13.4747 22.616 14.9573 22.04 16.344C21.464 17.7307 20.664 18.9467 19.64 19.992C18.6373 21.0373 17.4533 21.8587 16.088 22.456C14.744 23.032 13.2933 23.32 11.736 23.32ZM11.672 20.44C13.272 20.44 14.6693 20.0773 15.864 19.352C17.08 18.6053 18.04 17.592 18.744 16.312C19.448 15.0107 19.8 13.528 19.8 11.864C19.8 10.6267 19.5973 9.496 19.192 8.472C18.7867 7.42667 18.2213 6.52 17.496 5.752C16.7707 4.984 15.9173 4.39733 14.936 3.992C13.9547 3.56533 12.8667 3.352 11.672 3.352C10.0933 3.352 8.696 3.71467 7.48 4.44C6.28533 5.16533 5.336 6.168 4.632 7.448C3.94933 8.728 3.608 10.2 3.608 11.864C3.608 13.1013 3.8 14.2533 4.184 15.32C4.58933 16.3653 5.144 17.272 5.848 18.04C6.57333 18.7867 7.42667 19.3733 8.408 19.8C9.41067 20.2267 10.4987 20.44 11.672 20.44ZM28.5182 23V7.8H31.3983V23H28.5182ZM31.3983 14.328L30.3103 13.848C30.3103 11.9067 30.7583 10.36 31.6543 9.208C32.5503 8.056 33.8409 7.48 35.5263 7.48C36.2943 7.48 36.9876 7.61867 37.6063 7.896C38.2249 8.152 38.8009 8.58933 39.3343 9.208L37.4463 11.16C37.1263 10.8187 36.7743 10.5733 36.3903 10.424C36.0063 10.2747 35.5583 10.2 35.0463 10.2C33.9796 10.2 33.1049 10.5413 32.4223 11.224C31.7396 11.9067 31.3983 12.9413 31.3983 14.328ZM54.5165 23.32C52.9165 23.32 51.4338 23.032 50.0685 22.456C48.7032 21.8587 47.5085 21.0373 46.4845 19.992C45.4818 18.9467 44.7032 17.7307 44.1485 16.344C43.5938 14.9573 43.3165 13.4747 43.3165 11.896C43.3165 10.296 43.5938 8.80267 44.1485 7.416C44.7032 6.02933 45.4818 4.824 46.4845 3.8C47.5085 2.75467 48.6925 1.944 50.0365 1.368C51.4018 0.770665 52.8845 0.471998 54.4845 0.471998C56.2338 0.471998 57.7698 0.770665 59.0925 1.368C60.4152 1.96533 61.5885 2.776 62.6125 3.8L60.5325 5.88C59.8285 5.09067 58.9645 4.472 57.9405 4.024C56.9378 3.576 55.7858 3.352 54.4845 3.352C53.3112 3.352 52.2338 3.56533 51.2525 3.992C50.2712 4.39733 49.4178 4.984 48.6925 5.752C47.9672 6.52 47.4018 7.42667 46.9965 8.472C46.6125 9.51733 46.4205 10.6587 46.4205 11.896C46.4205 13.1333 46.6125 14.2747 46.9965 15.32C47.4018 16.3653 47.9672 17.272 48.6925 18.04C49.4178 18.808 50.2712 19.4053 51.2525 19.832C52.2338 20.2373 53.3112 20.44 54.4845 20.44C55.8712 20.44 57.0765 20.216 58.1005 19.768C59.1245 19.2987 59.9885 18.6693 60.6925 17.88L62.7725 19.928C61.7485 20.9947 60.5432 21.8267 59.1565 22.424C57.7912 23.0213 56.2445 23.32 54.5165 23.32ZM74.0677 23.32C72.8304 23.32 71.7104 23.0427 70.7078 22.488C69.7264 21.912 68.9584 21.1227 68.4038 20.12C67.8491 19.1173 67.5718 17.9547 67.5718 16.632V7.8H70.4518V16.504C70.4518 17.336 70.5904 18.0613 70.8678 18.68C71.1664 19.2773 71.5931 19.736 72.1478 20.056C72.7024 20.376 73.3531 20.536 74.0998 20.536C75.2304 20.536 76.1158 20.184 76.7558 19.48C77.3958 18.7547 77.7158 17.7627 77.7158 16.504V7.8H80.5958V16.632C80.5958 17.9547 80.3184 19.1173 79.7638 20.12C79.2091 21.1227 78.4411 21.912 77.4598 22.488C76.4998 23.0427 75.3691 23.32 74.0677 23.32ZM94.4558 23.32C93.3038 23.32 92.2584 23.0853 91.3198 22.616C90.4024 22.1253 89.6664 21.4533 89.1118 20.6C88.5571 19.7467 88.2478 18.776 88.1838 17.688V13.112C88.2478 12.0027 88.5571 11.032 89.1118 10.2C89.6878 9.34667 90.4344 8.68533 91.3518 8.216C92.2904 7.72533 93.3251 7.48 94.4558 7.48C95.8424 7.48 97.0904 7.832 98.1998 8.536C99.3304 9.24 100.216 10.1893 100.856 11.384C101.496 12.5787 101.816 13.9227 101.816 15.416C101.816 16.9093 101.496 18.2533 100.856 19.448C100.216 20.6427 99.3304 21.592 98.1998 22.296C97.0904 22.9787 95.8424 23.32 94.4558 23.32ZM86.4557 23V0.151999H89.3358V11.512L88.7918 15.192L89.3358 18.904V23H86.4557ZM93.9758 20.6C94.9358 20.6 95.7784 20.376 96.5038 19.928C97.2291 19.48 97.8051 18.872 98.2318 18.104C98.6584 17.3147 98.8718 16.408 98.8718 15.384C98.8718 14.3813 98.6584 13.4853 98.2318 12.696C97.8051 11.9067 97.2291 11.2987 96.5038 10.872C95.7784 10.424 94.9464 10.2 94.0078 10.2C93.0478 10.2 92.2051 10.424 91.4798 10.872C90.7544 11.2987 90.1891 11.9067 89.7838 12.696C89.3784 13.4853 89.1758 14.392 89.1758 15.416C89.1758 16.4187 89.3678 17.3147 89.7518 18.104C90.1571 18.872 90.7224 19.48 91.4478 19.928C92.1944 20.376 93.0371 20.6 93.9758 20.6ZM114.121 23.32C112.606 23.32 111.241 22.9787 110.025 22.296C108.809 21.592 107.849 20.6427 107.145 19.448C106.441 18.2533 106.089 16.8987 106.089 15.384C106.089 13.8907 106.43 12.5467 107.113 11.352C107.817 10.1573 108.755 9.21867 109.929 8.536C111.123 7.832 112.457 7.48 113.929 7.48C115.337 7.48 116.574 7.8 117.641 8.44C118.729 9.08 119.571 9.96533 120.169 11.096C120.787 12.2267 121.097 13.5067 121.097 14.936C121.097 15.1493 121.086 15.384 121.065 15.64C121.043 15.8747 121.001 16.152 120.937 16.472H108.105V14.072H119.401L118.345 15C118.345 13.976 118.163 13.112 117.801 12.408C117.438 11.6827 116.926 11.128 116.265 10.744C115.603 10.3387 114.803 10.136 113.865 10.136C112.883 10.136 112.019 10.3493 111.273 10.776C110.526 11.2027 109.95 11.8 109.545 12.568C109.139 13.336 108.937 14.2427 108.937 15.288C108.937 16.3547 109.15 17.2933 109.577 18.104C110.003 18.8933 110.611 19.512 111.401 19.96C112.19 20.3867 113.097 20.6 114.121 20.6C114.974 20.6 115.753 20.4507 116.457 20.152C117.182 19.8533 117.801 19.4053 118.313 18.808L120.169 20.696C119.443 21.5493 118.547 22.2 117.481 22.648C116.435 23.096 115.315 23.32 114.121 23.32Z" fill="white"/>
</g>
<defs>
<filter id="filter0_i_1_54" x="0.503998" y="0.151978" width="120.593" height="27.168" filterUnits="userSpaceOnUse" color-interpolation-filters="sRGB">
<feFlood flood-opacity="0" result="BackgroundImageFix"/>
<feBlend mode="normal" in="SourceGraphic" in2="BackgroundImageFix" result="shape"/>
<feColorMatrix in="SourceAlpha" type="matrix" values="0 0 0 0 0 0 0 0 0 0 0 0 0 0 0 0 0 0 127 0" result="hardAlpha"/>
<feOffset dy="4"/>
<feGaussianBlur stdDeviation="2"/>
<feComposite in2="hardAlpha" operator="arithmetic" k2="-1" k3="1"/>
<feColorMatrix type="matrix" values="0 0 0 0 1 0 0 0 0 1 0 0 0 0 1 0 0 0 1 0"/>
<feBlend mode="normal" in2="shape" result="effect1_innerShadow_1_54"/>
</filter>
</defs>
</svg>
