<?xml version="1.0" standalone="no"?>
<!DOCTYPE svg PUBLIC "-//W3C//DTD SVG 20010904//EN"
 "http://www.w3.org/TR/2001/REC-SVG-20010904/DTD/svg10.dtd">
<svg version="1.0" xmlns="http://www.w3.org/2000/svg"
 width="300.000000pt" height="300.000000pt" viewBox="0 0 300.000000 300.000000"
 preserveAspectRatio="xMidYMid meet">
<metadata>
Created by potrace 1.10, written by Peter Selinger 2001-2011
</metadata>
<g transform="translate(0.000000,300.000000) scale(0.100000,-0.100000)"
fill="#000000" stroke="none">
<path d="M1265 2975 c-11 -7 -297 -183 -635 -390 -338 -208 -617 -379 -619
-381 -3 -2 193 -3 435 -2 l439 3 150 285 c83 157 176 333 207 393 32 59 54
107 50 106 -4 0 -16 -6 -27 -14z"/>
<path d="M1289 2597 l-206 -392 209 -3 c114 -1 302 -1 417 0 l208 3 -206 392
c-113 216 -208 393 -211 393 -3 0 -98 -177 -211 -393z"/>
<path d="M1713 2968 c8 -13 101 -189 207 -391 106 -203 198 -371 204 -373 6
-2 203 -3 438 -2 l428 3 -198 121 c-108 67 -396 243 -639 393 -243 149 -444
271 -448 271 -3 0 1 -10 8 -22z"/>
<path d="M1410 1575 l0 -445 -192 0 -193 0 35 21 c20 11 47 37 60 56 22 33 25
49 29 155 l3 118 -176 0 -176 0 0 -110 c0 -91 4 -118 20 -150 19 -37 64 -78
92 -82 7 -1 -72 -5 -177 -8 l-190 -5 -3 -87 -3 -88 436 0 435 0 0 -289 0 -289
-113 -154 c-62 -84 -123 -168 -135 -185 l-23 -33 108 0 109 0 69 95 c37 52 71
95 75 95 4 0 38 -43 75 -95 l69 -95 109 0 108 0 -23 33 c-12 17 -73 101 -135
186 l-113 154 0 289 0 288 435 0 436 0 -3 88 -3 87 -190 5 c-104 3 -184 7
-177 8 28 4 73 45 92 82 16 32 20 59 20 150 l0 110 -176 0 -176 0 4 -118 c3
-107 5 -122 28 -155 13 -19 40 -45 60 -56 l35 -21 -192 0 -193 0 0 445 0 445
-90 0 -90 0 0 -445z"/>
<path d="M92 1465 c-39 -6 -74 -14 -77 -17 -3 -3 22 -176 55 -385 l60 -381 0
-341 0 -342 88 3 87 3 3 177 2 178 160 0 160 0 0 -180 0 -180 90 0 90 0 0 385
0 385 -254 0 c-140 0 -257 4 -260 8 -3 5 -28 154 -55 333 -57 361 -58 370 -69
368 -4 -1 -40 -7 -80 -14z"/>
<path d="M2819 1479 c-1 -2 -27 -161 -58 -354 l-56 -350 -258 -3 -257 -2 0
-385 0 -385 85 0 85 0 0 180 0 180 165 0 165 0 0 -180 0 -180 90 0 90 0 0 349
0 348 59 374 c40 252 56 376 49 380 -6 4 -37 10 -70 13 -33 4 -66 10 -74 13
-8 3 -15 4 -15 2z"/>
</g>
</svg>
