<?xml version="1.0" standalone="no"?>
<!DOCTYPE svg PUBLIC "-//W3C//DTD SVG 20010904//EN"
 "http://www.w3.org/TR/2001/REC-SVG-20010904/DTD/svg10.dtd">
<svg version="1.0" xmlns="http://www.w3.org/2000/svg"
 width="300.000000pt" height="300.000000pt" viewBox="0 0 300.000000 300.000000"
 preserveAspectRatio="xMidYMid meet">
<metadata>
Created by potrace 1.10, written by Peter Selinger 2001-2011
</metadata>
<g transform="translate(0.000000,300.000000) scale(0.100000,-0.100000)"
fill="#000000" stroke="none">
<path d="M814 2486 c-55 -24 -79 -106 -49 -170 28 -59 35 -61 320 -66 243 -5
263 -7 309 -28 88 -40 179 -131 200 -199 l7 -23 -376 0 c-419 0 -429 -1 -458
-63 -33 -68 -10 -149 49 -173 26 -11 113 -14 409 -14 l376 0 -7 -22 c-21 -69
-112 -160 -200 -200 -46 -21 -66 -23 -309 -28 -285 -5 -290 -7 -319 -67 -20
-42 -20 -76 -2 -111 18 -33 782 -795 813 -811 93 -47 209 69 162 162 -6 12
-135 146 -286 298 l-275 276 99 5 c174 10 296 67 426 200 68 70 136 190 152
266 l7 32 209 0 c224 0 250 5 283 52 21 29 21 117 0 146 -33 47 -59 52 -283
52 l-210 0 -12 43 c-6 23 -30 79 -53 125 l-43 82 264 0 c283 0 303 3 337 52
21 29 21 117 0 146 -37 53 -16 52 -791 52 -578 -1 -724 -3 -749 -14z"/>
</g>
</svg>
