<?xml version="1.0" standalone="no"?>
<!DOCTYPE svg PUBLIC "-//W3C//DTD SVG 20010904//EN"
 "http://www.w3.org/TR/2001/REC-SVG-20010904/DTD/svg10.dtd">
<svg version="1.0" xmlns="http://www.w3.org/2000/svg"
 width="300.000000pt" height="300.000000pt" viewBox="0 0 300.000000 300.000000"
 preserveAspectRatio="xMidYMid meet">
<metadata>
Created by potrace 1.10, written by Peter Selinger 2001-2011
</metadata>
<g transform="translate(0.000000,300.000000) scale(0.100000,-0.100000)"
fill="#000000" stroke="none">
<path d="M861 2846 c-48 -17 -108 -71 -134 -119 l-22 -42 -3 -737 c-1 -406 -5
-738 -8 -738 -2 0 -32 14 -65 31 -70 35 -89 29 -89 -27 0 -31 5 -36 57 -63 32
-15 68 -32 81 -35 21 -7 22 -4 22 38 0 25 4 46 8 46 5 0 46 -15 93 -34 l84
-34 5 756 c3 417 9 763 13 770 12 18 1182 18 1194 0 4 -7 10 -353 13 -770 l5
-756 85 34 c47 18 88 34 93 34 4 0 7 -21 7 -46 0 -42 1 -45 23 -38 12 3 48 20
80 35 52 27 57 32 57 63 0 56 -19 62 -89 27 -33 -17 -63 -31 -65 -31 -3 0 -7
332 -8 738 l-3 737 -22 41 c-28 53 -91 107 -142 122 -56 17 -1223 15 -1270 -2z"/>
<path d="M987 2573 c-4 -3 -7 -334 -7 -735 l0 -728 27 -11 c83 -31 343 -68
484 -69 154 0 413 35 502 69 l27 11 -2 732 -3 733 -511 3 c-281 1 -514 -1
-517 -5z m870 -723 c57 -34 63 -59 63 -258 0 -169 -1 -181 -23 -213 -46 -69
-132 -85 -200 -37 -49 35 -57 69 -57 255 0 187 7 215 65 253 39 26 110 26 152
0z"/>
<path d="M1746 1758 c-13 -18 -16 -52 -16 -160 0 -161 7 -188 49 -188 20 0 34
7 41 19 5 11 10 85 10 170 0 123 -3 152 -16 165 -22 22 -50 20 -68 -6z"/>
<path d="M220 1706 c-126 -64 -163 -234 -77 -348 82 -107 246 -119 346 -25 95
90 95 244 0 334 -71 67 -183 83 -269 39z"/>
<path d="M2575 1711 c-148 -69 -182 -266 -64 -378 100 -94 264 -82 346 25 86
114 49 284 -77 348 -57 30 -147 32 -205 5z"/>
<path d="M210 681 c0 -450 2 -511 16 -525 12 -12 37 -16 104 -16 80 0 90 2
104 22 14 20 16 86 16 526 l0 503 -37 -8 c-21 -4 -58 -8 -83 -8 -25 0 -62 4
-82 8 l-38 8 0 -510z"/>
<path d="M2550 688 c0 -440 2 -506 16 -526 14 -20 24 -22 104 -22 67 0 92 4
104 16 14 14 16 75 16 525 l0 510 -37 -8 c-21 -4 -58 -8 -83 -8 -25 0 -62 4
-82 8 l-38 8 0 -503z"/>
<path d="M700 732 c0 -324 2 -373 16 -386 11 -12 36 -16 95 -16 l79 0 0 353 0
352 -78 27 c-42 15 -85 30 -94 33 -17 7 -18 -15 -18 -363z"/>
<path d="M2198 1067 l-88 -32 0 -352 0 -353 79 0 c59 0 84 4 95 16 14 13 16
62 16 385 0 203 -3 369 -7 368 -5 -1 -47 -15 -95 -32z"/>
<path d="M980 665 l0 -335 520 0 520 0 0 335 c0 285 -2 335 -14 335 -8 0 -45
-7 -83 -16 -120 -28 -274 -44 -423 -44 -149 0 -303 16 -423 44 -38 9 -75 16
-83 16 -12 0 -14 -50 -14 -335z"/>
</g>
</svg>
