<?xml version="1.0" standalone="no"?>
<!DOCTYPE svg PUBLIC "-//W3C//DTD SVG 20010904//EN"
 "http://www.w3.org/TR/2001/REC-SVG-20010904/DTD/svg10.dtd">
<svg version="1.0" xmlns="http://www.w3.org/2000/svg"
 width="300.000000pt" height="300.000000pt" viewBox="0 0 300.000000 300.000000"
 preserveAspectRatio="xMidYMid meet">
<metadata>
Created by potrace 1.10, written by Peter Selinger 2001-2011
</metadata>
<g transform="translate(0.000000,300.000000) scale(0.100000,-0.100000)"
fill="#000000" stroke="none">
<path d="M1283 2228 c-6 -7 -13 -26 -17 -43 -4 -16 -9 -38 -12 -47 -5 -16 -2
-16 38 2 24 10 60 22 81 25 l38 7 -38 34 c-40 35 -74 43 -90 22z"/>
<path d="M1533 2205 l-32 -33 37 -7 c20 -4 57 -15 81 -26 40 -17 43 -17 36 -1
-3 9 -9 31 -12 47 -3 17 -10 36 -16 43 -18 22 -61 12 -94 -23z"/>
<path d="M1315 2072 c-74 -36 -133 -94 -165 -161 -13 -28 -22 -53 -19 -54 2
-2 119 -54 259 -114 l255 -111 72 65 c63 57 73 70 73 99 0 93 -87 222 -184
271 -41 22 -68 27 -141 30 -83 4 -95 2 -150 -25z"/>
<path d="M1056 2064 c-20 -19 -20 -43 -1 -68 8 -11 15 -28 15 -38 0 -10 5 -18
10 -18 6 0 10 4 10 9 0 5 18 33 40 62 l41 54 -28 6 c-48 11 -71 9 -87 -7z"/>
<path d="M1761 2071 l-33 -6 22 -20 c13 -11 35 -39 50 -63 l28 -43 21 44 c26
53 26 60 3 80 -19 18 -33 19 -91 8z"/>
<path d="M2154 1971 c-49 -23 -438 -361 -427 -371 6 -6 1091 -480 1161 -507
11 -5 13 32 10 193 -3 171 -6 204 -22 237 -12 24 -81 93 -190 190 -256 228
-268 238 -311 258 -54 25 -165 25 -221 0z"/>
<path d="M1855 1840 c3 -5 8 -10 11 -10 2 0 4 5 4 10 0 6 -5 10 -11 10 -5 0
-7 -4 -4 -10z"/>
<path d="M920 1810 c-19 -5 -190 -77 -379 -159 -248 -108 -354 -159 -378 -182
-64 -63 -64 -65 -61 -564 3 -434 4 -451 24 -490 11 -22 40 -53 63 -70 l43 -30
1268 0 1268 0 43 30 c81 57 84 71 84 389 l0 278 -917 399 c-961 417 -971 421
-1058 399z"/>
</g>
</svg>
