<?xml version="1.0" standalone="no"?>
<!DOCTYPE svg PUBLIC "-//W3C//DTD SVG 20010904//EN"
 "http://www.w3.org/TR/2001/REC-SVG-20010904/DTD/svg10.dtd">
<svg version="1.0" xmlns="http://www.w3.org/2000/svg"
 width="300.000000pt" height="300.000000pt" viewBox="0 0 300.000000 300.000000"
 preserveAspectRatio="xMidYMid meet">
<metadata>
Created by potrace 1.10, written by Peter Selinger 2001-2011
</metadata>
<g transform="translate(0.000000,300.000000) scale(0.100000,-0.100000)"
fill="#000000" stroke="none">
<path d="M1380 2668 c-169 -18 -362 -96 -504 -203 -211 -159 -358 -409 -396
-674 -10 -69 -15 -76 -69 -86 -122 -23 -290 -160 -349 -286 -84 -176 -80 -352
10 -522 66 -123 179 -217 317 -264 62 -21 82 -22 354 -23 l287 0 0 89 0 90
-277 3 -278 3 -65 31 c-125 60 -208 179 -218 313 -14 200 134 378 331 398 114
11 132 32 141 168 5 86 43 230 77 298 187 369 607 556 992 443 298 -88 504
-303 592 -619 20 -73 40 -92 109 -107 204 -42 361 -220 373 -423 10 -149 -32
-262 -132 -363 -120 -121 -198 -144 -492 -144 l-213 0 0 -90 0 -90 238 0 c266
0 309 7 427 65 174 85 299 243 345 438 46 193 4 384 -124 553 -67 90 -197 182
-301 214 -52 16 -62 25 -70 62 -13 56 -65 171 -112 247 -211 338 -595 523
-993 479z"/>
<path d="M1268 1343 c-109 -109 -198 -200 -198 -204 0 -4 28 -35 61 -69 l61
-62 109 108 109 109 0 -453 0 -453 93 3 92 3 3 445 2 444 105 -104 105 -105
67 67 67 67 -190 190 c-104 105 -199 195 -212 200 -57 27 -66 20 -274 -186z"/>
</g>
</svg>
