<?xml version="1.0" standalone="no"?>
<!DOCTYPE svg PUBLIC "-//W3C//DTD SVG 20010904//EN"
 "http://www.w3.org/TR/2001/REC-SVG-20010904/DTD/svg10.dtd">
<svg version="1.0" xmlns="http://www.w3.org/2000/svg"
 width="300.000000pt" height="300.000000pt" viewBox="0 0 300.000000 300.000000"
 preserveAspectRatio="xMidYMid meet">
<metadata>
Created by potrace 1.10, written by Peter Selinger 2001-2011
</metadata>
<g transform="translate(0.000000,300.000000) scale(0.100000,-0.100000)"
fill="#000000" stroke="none">
<path d="M2630 2960 c0 -23 -86 -187 -141 -269 -71 -108 -182 -222 -389 -403
-227 -198 -290 -270 -355 -398 -74 -147 -105 -298 -105 -515 l0 -140 41 65
c94 148 236 305 459 505 173 156 277 299 403 557 82 166 102 193 132 168 44
-36 -19 -288 -123 -495 -78 -156 -133 -228 -362 -470 -67 -71 -150 -165 -185
-210 -67 -86 -149 -214 -142 -222 11 -10 420 78 511 111 297 106 473 314 562
663 96 379 13 738 -232 1002 -54 59 -74 72 -74 51z"/>
<path d="M1316 2730 c-204 -32 -404 -118 -568 -243 -67 -50 -80 -67 -55 -67 6
-1 51 -15 98 -34 l87 -32 78 48 c162 100 338 148 544 148 204 0 389 -51 546
-149 l64 -40 71 62 71 61 -26 23 c-43 37 -165 104 -254 141 -154 62 -258 83
-437 87 -88 2 -187 0 -219 -5z"/>
<path d="M2604 2368 c-53 -112 -170 -305 -237 -390 -65 -83 -146 -164 -329
-330 -263 -239 -429 -511 -522 -856 -13 -48 -26 -80 -29 -72 -137 434 -242
652 -452 935 -90 121 -255 309 -286 326 -11 5 11 -32 49 -83 351 -475 568
-1048 622 -1638 5 -63 10 -143 10 -177 l0 -63 70 0 70 0 0 69 c0 307 69 668
175 921 91 214 205 374 447 627 207 215 292 338 371 538 37 93 82 244 75 251
-3 2 -18 -24 -34 -58z"/>
<path d="M275 2403 c-43 -4 -199 -31 -227 -39 -14 -4 2 -24 70 -93 133 -133
186 -235 222 -431 49 -261 89 -358 190 -461 120 -121 314 -199 562 -224 l68
-7 -11 30 c-16 47 -153 323 -200 404 -62 108 -174 273 -240 357 -33 40 -59 79
-59 86 0 31 13 45 42 45 23 0 48 -19 125 -92 152 -147 317 -363 431 -562 47
-82 52 -86 58 -62 14 56 -3 318 -25 396 -68 233 -243 462 -427 557 -156 82
-363 116 -579 96z"/>
<path d="M280 1743 c-21 -99 -24 -334 -6 -443 76 -438 361 -790 773 -954 93
-37 243 -75 297 -76 l29 0 -7 63 c-14 130 -7 120 -99 141 -405 91 -713 408
-801 824 -17 79 -32 122 -59 166 -40 65 -70 148 -88 246 -17 94 -24 100 -39
33z"/>
<path d="M2690 1370 c-25 -21 -72 -56 -103 -77 -56 -38 -58 -41 -91 -135 -119
-347 -415 -611 -771 -687 l-80 -18 -7 -44 c-3 -24 -7 -66 -7 -93 l-1 -49 61 7
c75 9 209 47 300 86 328 139 584 424 693 770 24 73 61 268 54 275 -2 2 -23
-14 -48 -35z"/>
</g>
</svg>
