<?xml version="1.0" standalone="no"?>
<!DOCTYPE svg PUBLIC "-//W3C//DTD SVG 20010904//EN"
 "http://www.w3.org/TR/2001/REC-SVG-20010904/DTD/svg10.dtd">
<svg version="1.0" xmlns="http://www.w3.org/2000/svg"
 width="300.000000pt" height="300.000000pt" viewBox="0 0 300.000000 300.000000"
 preserveAspectRatio="xMidYMid meet">
<metadata>
Created by potrace 1.10, written by Peter Selinger 2001-2011
</metadata>
<g transform="translate(0.000000,300.000000) scale(0.100000,-0.100000)"
fill="#000000" stroke="none">
<path d="M2332 2883 c-41 -20 -71 -61 -80 -112 -6 -32 -30 -64 -137 -180
l-130 -141 -828 0 c-899 0 -869 2 -895 -55 -15 -33 -15 -64 1 -91 7 -12 199
-256 427 -544 228 -287 481 -606 562 -709 l148 -186 0 -282 0 -283 -185 0
c-200 0 -227 -6 -251 -51 -27 -52 -8 -115 41 -137 37 -17 953 -17 990 0 49 22
68 85 41 137 -24 45 -51 51 -251 51 l-185 0 0 283 0 282 186 235 c103 129 356
449 564 710 207 261 382 485 388 497 16 29 15 58 -2 92 -24 46 -50 51 -272 51
l-205 0 68 75 c37 41 76 75 86 75 65 0 137 81 137 152 -1 106 -121 179 -218
131z m-567 -665 c-15 -18 -67 -74 -114 -125 l-88 -93 -396 0 -397 0 -100 120
c-55 66 -100 123 -100 125 0 3 275 5 611 5 l611 0 -27 -32z m665 27 c0 -2 -45
-59 -100 -125 l-100 -120 -197 0 -197 0 49 53 c28 28 81 85 120 125 l69 72
178 0 c98 0 178 -2 178 -5z"/>
</g>
</svg>
